<svg xmlns="http://www.w3.org/2000/svg" xmlns:xlink="http://www.w3.org/1999/xlink" width="500" zoomAndPan="magnify" viewBox="0 0 375 374.999991" height="500" preserveAspectRatio="xMidYMid meet" version="1.0"><defs><g/><clipPath id="3cec09ea6e"><path d="M 102 92.742188 L 272 92.742188 L 272 282 L 102 282 Z M 102 92.742188 " clip-rule="nonzero"/></clipPath></defs><g clip-path="url(#3cec09ea6e)"><path fill="#ffbd59" d="M 160.691406 280.5 C 147.324219 277.949219 136.34375 273.78125 126.660156 267.585938 C 119.269531 262.859375 109.203125 252.988281 106.742188 248.058594 C 103.234375 241.042969 105.617188 237.195312 111.542969 240.296875 C 112.652344 240.875 116.894531 244.519531 120.964844 248.390625 C 130.957031 257.898438 138.773438 263.605469 147.765625 267.957031 C 159.875 273.816406 167.851562 275.566406 182.941406 275.671875 C 197.078125 275.769531 204.699219 274.355469 213.46875 270.003906 C 220.46875 266.53125 222.25 264.53125 222.277344 260.121094 C 222.351562 245.738281 244.359375 225.363281 259.816406 225.363281 C 264.21875 225.363281 265.324219 225.734375 267.566406 227.980469 C 275.214844 235.628906 271.980469 250.171875 259.832031 262.746094 C 250.316406 272.59375 240.167969 276.121094 230.285156 273.015625 L 225.183594 271.410156 L 214.863281 274.851562 C 209.1875 276.742188 202.179688 278.890625 199.292969 279.621094 C 191.789062 281.523438 168.808594 282.046875 160.691406 280.5 Z M 248.519531 266.769531 C 256.476562 262.789062 266.65625 249.761719 266.65625 243.566406 C 266.65625 242.53125 265.453125 244.121094 263.914062 247.183594 C 259.988281 255.011719 251.363281 263.699219 244.238281 267.007812 C 239.585938 269.171875 239.082031 269.589844 241.679688 269.136719 C 243.460938 268.828125 246.539062 267.761719 248.519531 266.769531 Z M 177.390625 252.429688 C 167.527344 251.539062 158.0625 248.5 150.375 243.746094 C 145.796875 240.917969 147.1875 240.703125 152.96875 243.347656 C 165.285156 248.984375 183.445312 250.578125 196.355469 247.15625 C 202.113281 245.628906 214.613281 240.070312 219.480469 236.867188 C 220.753906 236.03125 219.917969 237.054688 217.628906 239.144531 C 207.996094 247.933594 190.742188 253.628906 177.390625 252.429688 Z M 260.265625 157.917969 C 259.292969 156.945312 255.414062 151.429688 251.652344 145.660156 C 247.886719 139.890625 242.410156 132.589844 239.484375 129.433594 C 224.0625 112.800781 202.644531 103.292969 180.628906 103.300781 C 166.359375 103.304688 160.289062 105.472656 160.265625 110.570312 C 160.257812 112.761719 159.484375 113.25 151.324219 116.203125 C 140.8125 120.003906 131.1875 126.066406 122.566406 134.3125 C 116.433594 140.183594 114.949219 141.15625 114.949219 139.320312 C 114.949219 137.414062 130.546875 123.027344 136.492188 119.445312 C 139.871094 117.410156 142.652344 115.226562 142.667969 114.589844 C 142.714844 112.9375 142.511719 113.011719 135.128906 117.363281 C 131.351562 119.589844 124.871094 124.824219 120.175781 129.433594 C 115.144531 134.378906 111.5625 137.242188 111.046875 136.722656 C 109.671875 135.351562 125.695312 119.863281 133.683594 114.839844 C 139.988281 110.875 142.234375 108.808594 140.230469 108.808594 C 138.917969 108.808594 129.050781 114.804688 124.199219 118.550781 C 121.402344 120.710938 116.421875 125.28125 113.136719 128.703125 C 106.074219 136.050781 104.398438 135.089844 111.003906 127.484375 C 116.230469 121.46875 123.914062 114.996094 132.292969 109.539062 C 137.523438 106.132812 139.359375 104.183594 137.328125 104.183594 C 136.101562 104.183594 125.953125 110.515625 120.753906 114.523438 C 118.09375 116.570312 113.210938 121.121094 109.902344 124.628906 C 106.589844 128.136719 103.445312 131.007812 102.910156 131.007812 C 99.703125 131.007812 113.378906 116.25 123.703125 108.566406 C 131.679688 102.628906 138.816406 98.738281 148.21875 95.199219 L 154.222656 92.9375 L 155.769531 94.847656 C 158.382812 98.074219 161.121094 98.527344 172.378906 97.597656 C 203.640625 95.023438 232.765625 106.226562 253.613281 128.851562 C 263.882812 139.996094 270.050781 154.308594 266.230469 158.132812 C 264.203125 160.160156 262.441406 160.09375 260.265625 157.917969 Z M 141.777344 141.71875 C 145.851562 137.246094 154.679688 132.03125 162.445312 129.507812 C 172.945312 126.097656 186.375 125.902344 196.355469 129.011719 C 202.871094 131.042969 213.550781 136.320312 212.753906 137.117188 C 212.554688 137.316406 209.730469 136.398438 206.476562 135.078125 C 186.828125 127.09375 162.367188 129.089844 146.167969 140.003906 C 139.984375 144.167969 139.304688 144.433594 141.777344 141.71875 Z M 141.777344 141.71875 " fill-opacity="1" fill-rule="nonzero"/></g><g fill="#ffbd59" fill-opacity="1"><g transform="translate(42.744118, 201.09088)"><g><path d="M 31.96875 -38.90625 C 22.390625 -38.90625 3.1875 -36.75 3.1875 -28.65625 C 3.1875 -26.8125 5.09375 -24.234375 7 -24.234375 C 7 -28.40625 14.484375 -31.59375 22.828125 -33.078125 C 20.0625 -30 15.953125 -23.5 12.578125 -17 C 9.640625 -16.4375 7.125 -15.640625 5.953125 -14.71875 C 5.03125 -13.984375 4.71875 -13.1875 4.71875 -12.578125 C 4.71875 -11.84375 5.21875 -11.296875 5.46875 -11.296875 C 5.828125 -11.78125 7.796875 -12.328125 10.5 -12.890625 C 8.15625 -7.984375 6.5 -3.5625 6.5 -1.28125 C 6.5 1.96875 9.328125 3.5625 10.796875 3.5625 C 11.296875 3.5625 11.59375 3.375 11.65625 3 C 11.65625 0.1875 14.421875 -6.75 18.046875 -13.921875 C 20.3125 -14.171875 22.453125 -14.296875 24.296875 -14.296875 C 27 -14.296875 28.96875 -13.984375 28.96875 -13.1875 C 29.640625 -13.1875 31.296875 -15.34375 31.296875 -16.9375 C 31.296875 -17.859375 30.6875 -18.65625 28.84375 -18.65625 C 27.671875 -18.65625 24.171875 -18.46875 20.25 -18.09375 C 23.125 -23.375 26.328125 -28.40625 29.015625 -31.53125 C 29.203125 -31.65625 29.328125 -31.78125 29.328125 -32.03125 C 29.328125 -32.515625 28.84375 -33.203125 28.15625 -33.8125 C 29.875 -34 31.59375 -34.046875 33.203125 -34.046875 C 38.40625 -34.046875 38.96875 -32.703125 38.96875 -31.046875 C 40.984375 -31.046875 41.84375 -31.78125 41.84375 -32.828125 C 41.84375 -35.09375 37.421875 -38.90625 31.96875 -38.90625 Z M 31.96875 -38.90625 "/></g></g></g><g fill="#ffbd59" fill-opacity="1"><g transform="translate(73.2339, 201.09088)"><g><path d="M 22.828125 -39.390625 C 14.171875 -39.390625 4.96875 -31.59375 4.96875 -25.46875 C 4.96875 -23.75 5.703125 -22.15625 7.296875 -20.921875 C 4.546875 -16.9375 2.703125 -12.203125 2.703125 -7.859375 C 2.703125 -1.40625 7.671875 3.5625 14.046875 3.5625 C 26.453125 3.5625 37.546875 -16.078125 37.546875 -26.203125 C 37.546875 -33.875 30.5 -39.390625 22.828125 -39.390625 Z M 12.390625 -0.3125 C 9.9375 -0.3125 8.46875 -2.09375 8.46875 -5.46875 C 8.46875 -12.953125 15.15625 -27.0625 26.6875 -27.0625 C 26.6875 -28.28125 24.734375 -30.625 21.296875 -30.625 C 17.484375 -30.625 13.125 -27.859375 9.640625 -23.9375 C 10.921875 -29.828125 19.453125 -36.140625 24.96875 -36.140625 C 28.53125 -36.140625 31.78125 -33.875 31.78125 -28.046875 C 31.78125 -16.8125 19.9375 -0.3125 12.390625 -0.3125 Z M 12.390625 -0.3125 "/></g></g></g><g fill="#ffbd59" fill-opacity="1"><g transform="translate(107.527241, 201.09088)"><g><path d="M 22.828125 -39.390625 C 14.171875 -39.390625 4.96875 -31.59375 4.96875 -25.46875 C 4.96875 -23.75 5.703125 -22.15625 7.296875 -20.921875 C 4.546875 -16.9375 2.703125 -12.203125 2.703125 -7.859375 C 2.703125 -1.40625 7.671875 3.5625 14.046875 3.5625 C 26.453125 3.5625 37.546875 -16.078125 37.546875 -26.203125 C 37.546875 -33.875 30.5 -39.390625 22.828125 -39.390625 Z M 12.390625 -0.3125 C 9.9375 -0.3125 8.46875 -2.09375 8.46875 -5.46875 C 8.46875 -12.953125 15.15625 -27.0625 26.6875 -27.0625 C 26.6875 -28.28125 24.734375 -30.625 21.296875 -30.625 C 17.484375 -30.625 13.125 -27.859375 9.640625 -23.9375 C 10.921875 -29.828125 19.453125 -36.140625 24.96875 -36.140625 C 28.53125 -36.140625 31.78125 -33.875 31.78125 -28.046875 C 31.78125 -16.8125 19.9375 -0.3125 12.390625 -0.3125 Z M 12.390625 -0.3125 "/></g></g></g><g fill="#ffbd59" fill-opacity="1"><g transform="translate(141.820581, 201.09088)"><g><path d="M 24.109375 -39.453125 C 15.40625 -39.453125 2.453125 -34.046875 2.453125 -26.265625 C 2.453125 -23.375 4.359375 -20.984375 6.3125 -20.984375 C 6.3125 -26.6875 14.78125 -32.390625 22.15625 -34.296875 C 17.546875 -29.640625 7.359375 -10.609375 7.359375 -5.34375 C 7.359375 -2.9375 9.328125 -1.109375 10.734375 -0.609375 C 12.03125 1.84375 14.359375 3.921875 18.28125 3.921875 C 28.59375 3.921875 41.421875 -9.875 41.421875 -22.21875 C 41.421875 -31.109375 34.734375 -39.453125 24.109375 -39.453125 Z M 16.625 -1.171875 C 14.234375 -1.171875 13.1875 -2.765625 13.1875 -4.546875 C 13.1875 -4.71875 13.1875 -4.96875 13.25 -5.15625 C 15.703125 -12.328125 22.09375 -25.53125 27.671875 -32.03125 C 27.859375 -32.15625 27.921875 -32.34375 27.921875 -32.578125 C 27.921875 -33.25 27.125 -34.296875 26.015625 -34.90625 L 26.75 -34.90625 C 33.203125 -34.90625 36.453125 -30.921875 36.453125 -25.46875 C 36.453125 -14.90625 24.234375 -1.171875 16.625 -1.171875 Z M 16.625 -1.171875 "/></g></g></g><g fill="#ffbd59" fill-opacity="1"><g transform="translate(181.205776, 201.09088)"><g><path d="M 42.28125 -28.34375 C 42.28125 -34.546875 35.765625 -39.453125 26.140625 -39.453125 C 15.640625 -39.453125 2.390625 -33.6875 2.390625 -26.203125 C 2.390625 -23.4375 4.171875 -20.984375 6.265625 -20.984375 C 6.265625 -25.59375 13.3125 -31.359375 21.65625 -33.75 C 16.8125 -28.40625 7.359375 -10.5 7.359375 -5.34375 C 7.359375 -2.9375 9.328125 -1.109375 10.734375 -0.546875 C 12.15625 1.84375 14.78125 3.921875 19.515625 3.921875 C 25.828125 3.921875 34.96875 -0.1875 34.96875 -7.734375 C 34.96875 -11.34375 32.578125 -14.171875 28.40625 -15.703125 C 36.140625 -18.046875 42.28125 -22.28125 42.28125 -28.34375 Z M 18.53125 -17.421875 C 21.296875 -22.953125 24.546875 -28.46875 27.609375 -32.03125 C 27.796875 -32.15625 27.859375 -32.34375 27.859375 -32.515625 C 27.859375 -33.140625 27.1875 -34.109375 26.265625 -34.734375 C 27.25 -34.859375 28.28125 -34.90625 29.265625 -34.90625 C 35.34375 -34.90625 38.46875 -32.515625 38.46875 -29.640625 C 38.46875 -24.296875 28.15625 -18.71875 18.53125 -17.421875 Z M 30.375 -9.875 C 30.375 -5.46875 23.125 -1.171875 17 -1.171875 C 14.171875 -1.171875 13.0625 -2.578125 13.0625 -4.234375 C 13.0625 -4.484375 13.125 -4.71875 13.1875 -5.03125 C 13.921875 -7.296875 15.09375 -10.25 16.5625 -13.3125 C 18.71875 -13.6875 20.734375 -13.875 22.515625 -13.875 C 27.25 -13.875 30.375 -12.578125 30.375 -9.875 Z M 30.375 -9.875 "/></g></g></g><g fill="#ffbd59" fill-opacity="1"><g transform="translate(218.259763, 201.09088)"><g><path d="M 30.4375 -38.53125 C 26.453125 -38.53125 21.046875 -37.859375 16.9375 -36.75 C 11.234375 -35.21875 8.21875 -31.78125 8.21875 -29.828125 C 8.21875 -28.96875 8.828125 -28.15625 10.0625 -28.15625 C 10.375 -31.421875 17.984375 -33.203125 25.03125 -33.9375 C 20.25 -29.203125 10.3125 -9.453125 10.3125 -3.3125 C 10.3125 -2.765625 10.375 -2.265625 10.546875 -1.84375 C 7.125 -1.65625 3.921875 -1.234375 2.265625 -0.796875 C -0.3125 -0.125 -1.65625 1.96875 -1.65625 3.375 C -1.65625 3.6875 -1.59375 3.921875 -1.46875 4.171875 C 1.171875 2.9375 12.390625 1.84375 18.953125 1.84375 C 21.84375 1.84375 23.8125 2.03125 23.9375 2.515625 C 24.421875 2.203125 24.609375 1.90625 24.609375 1.59375 C 24.609375 -0.421875 20 -1.46875 15.953125 -1.78125 C 17.546875 -9.140625 24.234375 -24.421875 30.375 -31.59375 C 30.5625 -31.71875 30.625 -31.90625 30.625 -32.15625 C 30.625 -32.765625 30.0625 -33.625 29.203125 -34.234375 C 30.3125 -34.296875 31.296875 -34.296875 32.21875 -34.296875 C 35.09375 -34.296875 37.0625 -34.046875 37.125 -33.625 C 37.734375 -33.875 38.78125 -34.796875 38.78125 -35.953125 C 38.78125 -37.921875 34.296875 -38.53125 30.4375 -38.53125 Z M 30.4375 -38.53125 "/></g></g></g><g fill="#ffbd59" fill-opacity="1"><g transform="translate(245.559458, 201.09088)"><g><path d="M 31.421875 -38.90625 C 23.8125 -38.90625 3.1875 -36.625 3.1875 -28.53125 C 3.1875 -26.5625 5.09375 -23.984375 7 -23.984375 C 7 -27.984375 15.03125 -31.59375 23.984375 -33.375 C 18.84375 -27.546875 8.59375 -7.359375 8.59375 -1.40625 C 8.59375 1.84375 11.46875 3.4375 12.953125 3.4375 C 13.5 3.4375 13.8125 3.25 13.875 2.890625 C 13.8125 -2.515625 23.078125 -23.375 30.125 -31.59375 C 30.3125 -31.71875 30.375 -31.90625 30.375 -32.09375 C 30.375 -32.703125 29.828125 -33.5625 28.96875 -34.171875 C 31.109375 -34.421875 33.25 -34.546875 35.28125 -34.546875 C 39.703125 -34.546875 40.984375 -34.359375 41.96875 -33.140625 C 42.765625 -33.140625 43.3125 -33.6875 43.3125 -34.359375 C 43.3125 -36.078125 40.4375 -38.90625 31.421875 -38.90625 Z M 31.421875 -38.90625 "/></g></g></g><g fill="#ffbd59" fill-opacity="1"><g transform="translate(268.994256, 201.09088)"><g><path d="M 13.75 3.921875 C 21.53125 3.921875 31.65625 -1.90625 40.125 -14.671875 C 40.125 -15.53125 39.03125 -16.265625 38.40625 -16.265625 C 32.765625 -8.03125 22.640625 -0.921875 13.375 -0.921875 C 9.515625 -0.921875 7.859375 -2.265625 7.859375 -4.296875 C 7.859375 -9.8125 18.46875 -14.78125 26.5 -15.40625 C 27.25 -15.09375 27.734375 -16.203125 27.734375 -17.421875 C 27.734375 -18.84375 27.1875 -20.5 25.828125 -20.734375 C 24.609375 -20.5625 22.890625 -20.3125 21.296875 -20.3125 C 18.59375 -20.3125 16.078125 -20.921875 16.078125 -23.3125 C 16.078125 -28.71875 26.875 -34.359375 33.5 -34.359375 C 35.40625 -34.359375 36.203125 -33.875 36.203125 -33.140625 C 36.203125 -31.53125 32.765625 -28.71875 29.578125 -26.625 C 30 -26.265625 30.6875 -26.078125 31.484375 -26.078125 C 34.796875 -26.078125 40.3125 -28.65625 40.3125 -32.15625 C 40.3125 -35.03125 36.265625 -39.140625 30.6875 -39.140625 C 23.3125 -39.140625 10.546875 -32.765625 10.546875 -24.734375 C 10.546875 -21.78125 12.765625 -19.265625 16.265625 -18.28125 L 16.265625 -17.859375 C 8.03125 -15.765625 2.328125 -11.65625 2.328125 -5.703125 C 2.328125 -0.25 7.421875 3.921875 13.75 3.921875 Z M 13.75 3.921875 "/></g></g></g><g fill="#ffbd59" fill-opacity="1"><g transform="translate(300.956389, 201.09088)"><g><path d="M 14.671875 3.5625 C 23.5625 3.5625 29.078125 -1.65625 29.078125 -6.015625 C 29.078125 -14.171875 13.5625 -12.953125 13.5625 -19.515625 C 13.5625 -25.03125 23.5625 -35.15625 30.921875 -35.15625 C 33.203125 -35.15625 34.109375 -34.234375 34.109375 -32.890625 C 34.109375 -29.515625 28.59375 -23.4375 23.875 -21.296875 C 25.09375 -20.25 26.453125 -19.8125 27.859375 -19.8125 C 33.140625 -19.8125 38.84375 -26.140625 38.84375 -30.984375 C 38.84375 -35.40625 34.046875 -39.140625 28.15625 -39.140625 C 18.53125 -39.140625 7.359375 -28.84375 7.359375 -20.5625 C 7.359375 -10.984375 23.75 -9.515625 23.75 -4.296875 C 23.75 -2.390625 21.65625 -1.53125 18.78125 -1.53125 C 12.828125 -1.53125 5.34375 -4.609375 3.796875 -9.453125 C 2.140625 -8.21875 1.234375 -6.6875 1.234375 -4.71875 C 1.234375 0.3125 7.609375 3.5625 14.671875 3.5625 Z M 14.671875 3.5625 "/></g></g></g><g fill="#ffbd59" fill-opacity="1"><g transform="translate(134.94899, 223.160097)"><g><path d="M 3.421875 0.109375 C 2.890625 0.109375 2.414062 0.046875 2 -0.078125 C 1.582031 -0.210938 1.234375 -0.382812 0.953125 -0.59375 C 0.671875 -0.8125 0.457031 -1.050781 0.3125 -1.3125 L 1.15625 -2.34375 L 1.28125 -2.34375 C 1.507812 -2 1.800781 -1.722656 2.15625 -1.515625 C 2.519531 -1.304688 2.941406 -1.203125 3.421875 -1.203125 C 3.828125 -1.203125 4.132812 -1.285156 4.34375 -1.453125 C 4.550781 -1.628906 4.65625 -1.875 4.65625 -2.1875 C 4.65625 -2.363281 4.617188 -2.515625 4.546875 -2.640625 C 4.484375 -2.765625 4.375 -2.867188 4.21875 -2.953125 C 4.0625 -3.046875 3.851562 -3.125 3.59375 -3.1875 L 2.609375 -3.40625 C 1.910156 -3.5625 1.390625 -3.820312 1.046875 -4.1875 C 0.710938 -4.5625 0.546875 -5.046875 0.546875 -5.640625 C 0.546875 -6.066406 0.65625 -6.445312 0.875 -6.78125 C 1.09375 -7.113281 1.410156 -7.367188 1.828125 -7.546875 C 2.242188 -7.734375 2.742188 -7.828125 3.328125 -7.828125 C 3.921875 -7.828125 4.425781 -7.75 4.84375 -7.59375 C 5.269531 -7.4375 5.628906 -7.195312 5.921875 -6.875 L 5.171875 -5.84375 L 5.03125 -5.84375 C 4.8125 -6.070312 4.5625 -6.242188 4.28125 -6.359375 C 4 -6.472656 3.679688 -6.53125 3.328125 -6.53125 C 2.898438 -6.53125 2.578125 -6.453125 2.359375 -6.296875 C 2.140625 -6.148438 2.03125 -5.945312 2.03125 -5.6875 C 2.03125 -5.445312 2.109375 -5.253906 2.265625 -5.109375 C 2.421875 -4.960938 2.6875 -4.847656 3.0625 -4.765625 L 4.078125 -4.5625 C 4.828125 -4.40625 5.367188 -4.132812 5.703125 -3.75 C 6.046875 -3.375 6.21875 -2.882812 6.21875 -2.28125 C 6.21875 -1.789062 6.113281 -1.367188 5.90625 -1.015625 C 5.695312 -0.660156 5.378906 -0.382812 4.953125 -0.1875 C 4.535156 0.0078125 4.023438 0.109375 3.421875 0.109375 Z M 3.421875 0.109375 "/></g></g></g><g fill="#ffbd59" fill-opacity="1"><g transform="translate(146.301685, 223.160097)"><g><path d="M 2.53125 0 L 1 0 L 1 -7.71875 L 2.53125 -7.71875 Z M 2.53125 0 "/></g></g></g><g fill="#ffbd59" fill-opacity="1"><g transform="translate(154.562806, 223.160097)"><g><path d="M 2.484375 0 L 1 0 L 1 -7.71875 L 2.75 -7.71875 L 5.84375 -2.75 L 5.984375 -2.765625 L 5.984375 -7.71875 L 7.453125 -7.71875 L 7.453125 0 L 5.890625 0 L 2.609375 -5.3125 L 2.484375 -5.296875 Z M 2.484375 0 "/></g></g></g><g fill="#ffbd59" fill-opacity="1"><g transform="translate(167.746178, 223.160097)"><g><path d="M 4.21875 0.109375 C 3.507812 0.109375 2.882812 -0.0351562 2.34375 -0.328125 C 1.800781 -0.628906 1.375 -1.078125 1.0625 -1.671875 C 0.757812 -2.265625 0.609375 -2.992188 0.609375 -3.859375 C 0.609375 -4.722656 0.757812 -5.453125 1.0625 -6.046875 C 1.375 -6.640625 1.800781 -7.082031 2.34375 -7.375 C 2.882812 -7.675781 3.507812 -7.828125 4.21875 -7.828125 C 4.957031 -7.828125 5.585938 -7.679688 6.109375 -7.390625 C 6.628906 -7.097656 7 -6.65625 7.21875 -6.0625 L 6.109375 -5.390625 L 5.96875 -5.390625 C 5.8125 -5.796875 5.585938 -6.082031 5.296875 -6.25 C 5.015625 -6.425781 4.65625 -6.515625 4.21875 -6.515625 C 3.570312 -6.515625 3.070312 -6.300781 2.71875 -5.875 C 2.363281 -5.457031 2.1875 -4.785156 2.1875 -3.859375 C 2.1875 -2.941406 2.363281 -2.269531 2.71875 -1.84375 C 3.070312 -1.414062 3.570312 -1.203125 4.21875 -1.203125 C 5.21875 -1.203125 5.832031 -1.691406 6.0625 -2.671875 L 6.1875 -2.671875 L 7.3125 -2.078125 C 7.101562 -1.347656 6.742188 -0.800781 6.234375 -0.4375 C 5.722656 -0.0703125 5.050781 0.109375 4.21875 0.109375 Z M 4.21875 0.109375 "/></g></g></g><g fill="#ffbd59" fill-opacity="1"><g transform="translate(180.037953, 223.160097)"><g><path d="M 2.53125 -3.390625 L 2.53125 -1.28125 L 6.21875 -1.28125 L 6.21875 0 L 1 0 L 1 -7.71875 L 6.125 -7.71875 L 6.125 -6.4375 L 2.53125 -6.4375 L 2.53125 -4.640625 L 5.671875 -4.640625 L 5.671875 -3.390625 Z M 2.53125 -3.390625 "/></g></g></g><g fill="#ffbd59" fill-opacity="1"><g transform="translate(191.395927, 223.160097)"><g/></g></g><g fill="#ffbd59" fill-opacity="1"><g transform="translate(198.67049, 223.160097)"><g><path d="M 0.40625 0 L 0.40625 -1.265625 L 2.265625 -1.265625 L 2.265625 -6.0625 L 2.15625 -6.09375 C 1.882812 -5.96875 1.617188 -5.867188 1.359375 -5.796875 C 1.109375 -5.722656 0.820312 -5.664062 0.5 -5.625 L 0.5 -6.921875 C 1.351562 -7.109375 2.046875 -7.375 2.578125 -7.71875 L 3.78125 -7.71875 L 3.78125 -1.265625 L 5.4375 -1.265625 L 5.4375 0 Z M 0.40625 0 "/></g></g></g><g fill="#ffbd59" fill-opacity="1"><g transform="translate(209.089385, 223.160097)"><g><path d="M 3.21875 0.109375 C 2.5 0.109375 1.925781 -0.0351562 1.5 -0.328125 C 1.082031 -0.617188 0.804688 -1.03125 0.671875 -1.5625 L 1.828125 -2.078125 L 1.953125 -2.0625 C 2.148438 -1.46875 2.570312 -1.171875 3.21875 -1.171875 C 3.71875 -1.171875 4.097656 -1.378906 4.359375 -1.796875 C 4.617188 -2.210938 4.75 -2.84375 4.75 -3.6875 L 4.65625 -3.71875 C 4.476562 -3.382812 4.242188 -3.128906 3.953125 -2.953125 C 3.671875 -2.785156 3.304688 -2.703125 2.859375 -2.703125 C 2.398438 -2.703125 1.992188 -2.800781 1.640625 -3 C 1.296875 -3.207031 1.023438 -3.5 0.828125 -3.875 C 0.628906 -4.257812 0.53125 -4.703125 0.53125 -5.203125 C 0.53125 -5.742188 0.644531 -6.207031 0.875 -6.59375 C 1.101562 -6.988281 1.421875 -7.289062 1.828125 -7.5 C 2.242188 -7.71875 2.734375 -7.828125 3.296875 -7.828125 C 4.242188 -7.828125 4.984375 -7.523438 5.515625 -6.921875 C 6.054688 -6.316406 6.328125 -5.34375 6.328125 -4 C 6.328125 -3.082031 6.203125 -2.316406 5.953125 -1.703125 C 5.703125 -1.085938 5.347656 -0.628906 4.890625 -0.328125 C 4.429688 -0.0351562 3.875 0.109375 3.21875 0.109375 Z M 3.328125 -3.953125 C 3.722656 -3.953125 4.035156 -4.066406 4.265625 -4.296875 C 4.492188 -4.523438 4.609375 -4.835938 4.609375 -5.234375 C 4.609375 -5.628906 4.492188 -5.941406 4.265625 -6.171875 C 4.046875 -6.410156 3.734375 -6.53125 3.328125 -6.53125 C 2.929688 -6.53125 2.625 -6.414062 2.40625 -6.1875 C 2.1875 -5.96875 2.078125 -5.648438 2.078125 -5.234375 C 2.078125 -4.828125 2.1875 -4.507812 2.40625 -4.28125 C 2.625 -4.0625 2.929688 -3.953125 3.328125 -3.953125 Z M 3.328125 -3.953125 "/></g></g></g><g fill="#ffbd59" fill-opacity="1"><g transform="translate(220.790281, 223.160097)"><g><path d="M 3.21875 0.109375 C 2.5 0.109375 1.925781 -0.0351562 1.5 -0.328125 C 1.082031 -0.617188 0.804688 -1.03125 0.671875 -1.5625 L 1.828125 -2.078125 L 1.953125 -2.0625 C 2.148438 -1.46875 2.570312 -1.171875 3.21875 -1.171875 C 3.71875 -1.171875 4.097656 -1.378906 4.359375 -1.796875 C 4.617188 -2.210938 4.75 -2.84375 4.75 -3.6875 L 4.65625 -3.71875 C 4.476562 -3.382812 4.242188 -3.128906 3.953125 -2.953125 C 3.671875 -2.785156 3.304688 -2.703125 2.859375 -2.703125 C 2.398438 -2.703125 1.992188 -2.800781 1.640625 -3 C 1.296875 -3.207031 1.023438 -3.5 0.828125 -3.875 C 0.628906 -4.257812 0.53125 -4.703125 0.53125 -5.203125 C 0.53125 -5.742188 0.644531 -6.207031 0.875 -6.59375 C 1.101562 -6.988281 1.421875 -7.289062 1.828125 -7.5 C 2.242188 -7.71875 2.734375 -7.828125 3.296875 -7.828125 C 4.242188 -7.828125 4.984375 -7.523438 5.515625 -6.921875 C 6.054688 -6.316406 6.328125 -5.34375 6.328125 -4 C 6.328125 -3.082031 6.203125 -2.316406 5.953125 -1.703125 C 5.703125 -1.085938 5.347656 -0.628906 4.890625 -0.328125 C 4.429688 -0.0351562 3.875 0.109375 3.21875 0.109375 Z M 3.328125 -3.953125 C 3.722656 -3.953125 4.035156 -4.066406 4.265625 -4.296875 C 4.492188 -4.523438 4.609375 -4.835938 4.609375 -5.234375 C 4.609375 -5.628906 4.492188 -5.941406 4.265625 -6.171875 C 4.046875 -6.410156 3.734375 -6.53125 3.328125 -6.53125 C 2.929688 -6.53125 2.625 -6.414062 2.40625 -6.1875 C 2.1875 -5.96875 2.078125 -5.648438 2.078125 -5.234375 C 2.078125 -4.828125 2.1875 -4.507812 2.40625 -4.28125 C 2.625 -4.0625 2.929688 -3.953125 3.328125 -3.953125 Z M 3.328125 -3.953125 "/></g></g></g><g fill="#ffbd59" fill-opacity="1"><g transform="translate(232.491177, 223.160097)"><g><path d="M 3.765625 0.109375 C 3.140625 0.109375 2.59375 -0.03125 2.125 -0.3125 C 1.65625 -0.59375 1.289062 -1.023438 1.03125 -1.609375 C 0.78125 -2.203125 0.65625 -2.953125 0.65625 -3.859375 C 0.65625 -4.765625 0.78125 -5.507812 1.03125 -6.09375 C 1.289062 -6.6875 1.65625 -7.125 2.125 -7.40625 C 2.59375 -7.6875 3.140625 -7.828125 3.765625 -7.828125 C 4.398438 -7.828125 4.953125 -7.6875 5.421875 -7.40625 C 5.890625 -7.125 6.25 -6.6875 6.5 -6.09375 C 6.757812 -5.507812 6.890625 -4.765625 6.890625 -3.859375 C 6.890625 -2.953125 6.757812 -2.203125 6.5 -1.609375 C 6.25 -1.023438 5.890625 -0.59375 5.421875 -0.3125 C 4.953125 -0.03125 4.398438 0.109375 3.765625 0.109375 Z M 3.765625 -1.1875 C 4.109375 -1.1875 4.394531 -1.269531 4.625 -1.4375 C 4.863281 -1.601562 5.046875 -1.878906 5.171875 -2.265625 C 5.296875 -2.660156 5.359375 -3.191406 5.359375 -3.859375 C 5.359375 -4.523438 5.296875 -5.050781 5.171875 -5.4375 C 5.046875 -5.832031 4.863281 -6.113281 4.625 -6.28125 C 4.394531 -6.445312 4.109375 -6.53125 3.765625 -6.53125 C 3.421875 -6.53125 3.132812 -6.445312 2.90625 -6.28125 C 2.675781 -6.113281 2.5 -5.832031 2.375 -5.4375 C 2.25 -5.050781 2.1875 -4.523438 2.1875 -3.859375 C 2.1875 -3.191406 2.25 -2.660156 2.375 -2.265625 C 2.5 -1.878906 2.675781 -1.601562 2.90625 -1.4375 C 3.132812 -1.269531 3.421875 -1.1875 3.765625 -1.1875 Z M 3.765625 -1.1875 "/></g></g></g></svg>