<svg xmlns="http://www.w3.org/2000/svg" width="500" viewBox="0 0 375 375" height="500" version="1.0"><defs><clipPath id="a"><path d="M102 92.742h170V282H102Zm0 0"/></clipPath></defs><g clip-path="url(#a)"><path fill="#ffbd59" d="M160.691 280.5c-13.367-2.55-24.347-6.719-34.03-12.914-7.391-4.727-17.458-14.598-19.919-19.527-3.508-7.016-1.125-10.864 4.801-7.762 1.11.578 5.352 4.223 9.422 8.094 9.992 9.507 17.808 15.214 26.8 19.566 12.11 5.86 20.087 7.61 35.176 7.715 14.137.098 21.758-1.317 30.528-5.668 7-3.473 8.781-5.473 8.808-9.883.075-14.383 22.082-34.758 37.54-34.758 4.402 0 5.507.371 7.75 2.617 7.648 7.649 4.413 22.192-7.735 34.766-9.516 9.848-19.664 13.375-29.547 10.27l-5.101-1.606-10.32 3.442c-5.677 1.89-12.684 4.039-15.571 4.77-7.504 1.901-30.484 2.425-38.602.878Zm87.829-13.73c7.957-3.98 18.136-17.008 18.136-23.204 0-1.035-1.203.555-2.742 3.618-3.926 7.828-12.55 16.515-19.676 19.824-4.652 2.164-5.156 2.582-2.558 2.129 1.78-.309 4.86-1.375 6.84-2.367Zm-71.13-14.34c-9.863-.89-19.327-3.93-27.015-8.684-4.578-2.828-3.188-3.043 2.594-.398 12.316 5.636 30.476 7.23 43.386 3.808 5.758-1.527 18.258-7.086 23.125-10.289 1.274-.836.438.188-1.851 2.278-9.633 8.789-26.887 14.484-40.238 13.285Zm82.876-94.512c-.973-.973-4.852-6.488-8.614-12.258-3.765-5.77-9.242-13.07-12.168-16.226-15.422-16.633-36.84-26.141-58.855-26.133-14.27.004-20.34 2.172-20.363 7.27-.008 2.19-.782 2.679-8.942 5.632-10.512 3.8-20.137 9.863-28.758 18.11-6.132 5.87-7.617 6.843-7.617 5.007 0-1.906 15.598-16.293 21.543-19.875 3.38-2.035 6.16-4.218 6.176-4.855.047-1.653-.156-1.578-7.54 2.773-3.776 2.227-10.257 7.461-14.952 12.07-5.031 4.946-8.614 7.81-9.13 7.29-1.374-1.371 14.65-16.86 22.638-21.883 6.304-3.965 8.55-6.031 6.546-6.031-1.312 0-11.18 5.996-16.03 9.742-2.798 2.16-7.778 6.73-11.063 10.152-7.063 7.348-8.739 6.387-2.133-1.219 5.226-6.015 12.91-12.488 21.289-17.945 5.23-3.406 7.066-5.355 5.035-5.355-1.226 0-11.375 6.332-16.574 10.34-2.66 2.046-7.543 6.597-10.852 10.105-3.312 3.508-6.457 6.379-6.992 6.379-3.207 0 10.469-14.758 20.793-22.442 7.977-5.937 15.113-9.828 24.516-13.367l6.004-2.261 1.547 1.91c2.613 3.226 5.351 3.68 16.609 2.75 31.262-2.575 60.387 8.629 81.234 31.254 10.27 11.144 16.438 25.457 12.617 29.28-2.027 2.028-3.789 1.962-5.964-.214Zm-118.489-16.2c4.075-4.472 12.903-9.687 20.668-12.21 10.5-3.41 23.93-3.606 33.91-.496 6.516 2.031 17.196 7.308 16.399 8.105-.2.2-3.024-.719-6.277-2.039-19.649-7.984-44.11-5.988-60.309 4.926-6.184 4.164-6.863 4.43-4.39 1.715Zm0 0"/></g><path d="M74.713 162.185c-9.578 0-28.781 2.156-28.781 10.25 0 1.843 1.906 4.422 3.812 4.422 0-4.172 7.484-7.36 15.828-8.844-2.765 3.078-6.875 9.578-10.25 16.078-2.937.562-5.453 1.36-6.625 2.281-.922.735-1.234 1.531-1.234 2.14 0 .735.5 1.282.75 1.282.36-.484 2.328-1.031 5.031-1.594-2.344 4.907-4 9.328-4 11.61 0 3.25 2.828 4.843 4.297 4.843.5 0 .797-.187.86-.562 0-2.813 2.765-9.75 6.39-16.922 2.266-.25 4.406-.375 6.25-.375 2.703 0 4.672.313 4.672 1.11.672 0 2.328-2.157 2.328-3.75 0-.922-.61-1.72-2.453-1.72-1.172 0-4.672.188-8.594.563 2.875-5.281 6.078-10.312 8.766-13.437.187-.125.312-.25.312-.5 0-.485-.484-1.172-1.172-1.782 1.72-.187 3.438-.234 5.047-.234 5.203 0 5.766 1.344 5.766 3 2.015 0 2.875-.734 2.875-1.781 0-2.266-4.422-6.078-9.875-6.078Zm0 0" fill="#ffbd59"/><path d="M96.062 161.7c-8.656 0-17.86 7.797-17.86 13.922 0 1.719.735 3.313 2.329 4.547-2.75 3.984-4.594 8.719-4.594 13.063 0 6.453 4.969 11.421 11.344 11.421 12.406 0 23.5-19.64 23.5-29.765 0-7.672-7.047-13.188-14.719-13.188Zm-10.437 39.078c-2.454 0-3.922-1.78-3.922-5.156 0-7.484 6.687-21.594 18.218-21.594 0-1.218-1.953-3.562-5.39-3.562-3.813 0-8.172 2.766-11.656 6.687 1.28-5.89 9.812-12.203 15.328-12.203 3.562 0 6.812 2.266 6.812 8.094 0 11.234-11.844 27.734-19.39 27.734Zm44.73-39.078c-8.656 0-17.859 7.797-17.859 13.922 0 1.719.734 3.313 2.328 4.547-2.75 3.984-4.594 8.719-4.594 13.063 0 6.453 4.97 11.421 11.344 11.421 12.406 0 23.5-19.64 23.5-29.765 0-7.672-7.047-13.188-14.719-13.188Zm-10.437 39.078c-2.453 0-3.922-1.78-3.922-5.156 0-7.484 6.687-21.594 18.219-21.594 0-1.218-1.953-3.562-5.39-3.562-3.813 0-8.173 2.766-11.657 6.687 1.281-5.89 9.812-12.203 15.328-12.203 3.562 0 6.812 2.266 6.812 8.094 0 11.234-11.843 27.734-19.39 27.734Zm0 0" fill="#ffbd59"/><path d="M165.93 161.638c-8.703 0-21.656 5.406-21.656 13.187 0 2.89 1.906 5.282 3.86 5.282 0-5.704 8.468-11.407 15.843-13.313-4.61 4.656-14.797 23.688-14.797 28.953 0 2.406 1.969 4.235 3.375 4.735 1.297 2.453 3.625 4.53 7.547 4.53 10.312 0 23.14-13.796 23.14-26.14 0-8.89-6.687-17.234-17.312-17.234Zm-7.484 38.281c-2.391 0-3.438-1.594-3.438-3.375 0-.172 0-.422.063-.61 2.453-7.171 8.843-20.374 14.421-26.874.188-.125.25-.313.25-.547 0-.672-.796-1.719-1.906-2.328h.735c6.453 0 9.703 3.984 9.703 9.437 0 10.563-12.219 24.297-19.828 24.297Zm65.041-27.172c0-6.203-6.516-11.11-16.14-11.11-10.5 0-23.75 5.766-23.75 13.25 0 2.766 1.78 5.22 3.874 5.22 0-4.61 7.047-10.375 15.391-12.766-4.844 5.344-14.297 23.25-14.297 28.406 0 2.406 1.969 4.235 3.375 4.797 1.422 2.39 4.047 4.469 8.781 4.469 6.313 0 15.454-4.11 15.454-11.656 0-3.61-2.391-6.438-6.563-7.97 7.734-2.343 13.875-6.577 13.875-12.64Zm-23.75 10.922c2.766-5.531 6.016-11.047 9.078-14.61a.56.56 0 0 0 .25-.484c0-.625-.672-1.593-1.594-2.218a24.142 24.142 0 0 1 3-.172c6.079 0 9.204 2.39 9.204 5.265 0 5.344-10.313 10.922-19.938 12.219Zm11.844 7.547c0 4.406-7.25 8.703-13.375 8.703-2.828 0-3.938-1.406-3.938-3.062 0-.25.063-.485.125-.797.735-2.266 1.907-5.22 3.375-8.282 2.157-.375 4.172-.562 5.953-.562 4.735 0 7.86 1.297 7.86 4Zm37.116-28.656c-3.984 0-9.39.672-13.5 1.78-5.703 1.532-8.718 4.97-8.718 6.923 0 .86.609 1.672 1.843 1.672.313-3.266 7.922-5.047 14.969-5.782-4.781 4.735-14.719 24.485-14.719 30.625 0 .547.063 1.047.235 1.47-3.422.187-6.625.609-8.282 1.046-2.578.672-3.921 2.766-3.921 4.172 0 .312.062.547.187.797 2.64-1.235 13.86-2.328 20.422-2.328 2.89 0 4.86.187 4.984.672.485-.313.672-.61.672-.922 0-2.016-4.61-3.063-8.656-3.375 1.594-7.36 8.281-22.641 14.422-29.813.187-.125.25-.312.25-.562 0-.61-.563-1.47-1.422-2.078 1.11-.063 2.094-.063 3.016-.063 2.875 0 4.843.25 4.906.672.61-.25 1.656-1.172 1.656-2.328 0-1.969-4.484-2.578-8.344-2.578Zm0 0" fill="#ffbd59"/><path d="M276.981 162.185c-7.609 0-28.234 2.28-28.234 10.375 0 1.968 1.906 4.547 3.812 4.547 0-4 8.032-7.61 16.985-9.391-5.14 5.828-15.39 26.016-15.39 31.969 0 3.25 2.874 4.843 4.359 4.843.546 0 .859-.187.921-.546-.062-5.407 9.204-26.266 16.25-34.485a.568.568 0 0 0 .25-.5c0-.61-.546-1.469-1.406-2.078a54.87 54.87 0 0 1 6.313-.375c4.422 0 5.703.188 6.687 1.406.797 0 1.344-.547 1.344-1.218 0-1.72-2.875-4.547-11.89-4.547Zm0 0" fill="#ffbd59"/><path d="M282.744 205.013c7.782 0 17.907-5.828 26.375-18.594 0-.86-1.093-1.594-1.718-1.594-5.641 8.235-15.766 15.344-25.032 15.344-3.86 0-5.515-1.344-5.515-3.375 0-5.516 10.609-10.484 18.64-11.11.75.313 1.235-.796 1.235-2.015 0-1.422-.547-3.078-1.907-3.312-1.218.171-2.937.421-4.53.421-2.704 0-5.22-.609-5.22-3 0-5.406 10.797-11.046 17.422-11.046 1.907 0 2.703.484 2.703 1.218 0 1.61-3.437 4.422-6.625 6.516.422.36 1.11.547 1.907.547 3.312 0 8.828-2.578 8.828-6.078 0-2.875-4.047-6.985-9.625-6.985-7.375 0-20.14 6.375-20.14 14.407 0 2.953 2.218 5.468 5.718 6.453v.422c-8.234 2.093-13.938 6.203-13.938 12.156 0 5.453 5.094 9.625 11.422 9.625Zm0 0" fill="#ffbd59"/><path d="M315.628 204.653c8.89 0 14.407-5.218 14.407-9.578 0-8.156-15.516-6.937-15.516-13.5 0-5.515 10-15.64 17.36-15.64 2.28 0 3.187.922 3.187 2.265 0 3.375-5.516 9.453-10.235 11.594 1.22 1.047 2.579 1.484 3.985 1.484 5.281 0 10.984-6.328 10.984-11.171 0-4.422-4.797-8.157-10.687-8.157-9.625 0-20.797 10.297-20.797 18.578 0 9.579 16.39 11.047 16.39 16.266 0 1.906-2.093 2.766-4.968 2.766-5.953 0-13.438-3.078-14.985-7.922-1.656 1.234-2.562 2.765-2.562 4.734 0 5.031 6.375 8.281 13.437 8.281ZM138.37 223.27a4.937 4.937 0 0 1-1.421-.188 3.492 3.492 0 0 1-1.047-.516 2.385 2.385 0 0 1-.64-.718l.843-1.032h.125c.227.344.52.621.875.828.364.211.785.313 1.266.313.406 0 .71-.082.922-.25.207-.176.312-.422.312-.734a.915.915 0 0 0-.11-.454.75.75 0 0 0-.327-.312 2.28 2.28 0 0 0-.625-.234l-.985-.22c-.699-.155-1.218-.413-1.562-.78-.336-.375-.5-.86-.5-1.454 0-.425.11-.804.328-1.14.219-.332.535-.586.953-.766.414-.187.914-.281 1.5-.281.594 0 1.098.078 1.516.234.426.157.785.399 1.078.72l-.75 1.03h-.14a2.223 2.223 0 0 0-.75-.515 2.542 2.542 0 0 0-.954-.172c-.43 0-.75.078-.969.234a.699.699 0 0 0-.328.61c0 .242.078.433.235.578.156.148.421.261.796.343l1.016.204c.75.156 1.29.43 1.625.812.344.375.516.867.516 1.469 0 .492-.106.914-.313 1.265-.21.356-.527.633-.953.829-.418.195-.93.296-1.531.296Zm10.463-.11h-1.531v-7.719h1.53Zm8.214 0h-1.484v-7.719h1.75l3.094 4.97.14-.017v-4.953h1.469v7.72h-1.563l-3.28-5.313-.126.015Zm14.918.11c-.711 0-1.336-.145-1.875-.438-.543-.3-.969-.75-1.281-1.344-.305-.594-.453-1.32-.453-2.187 0-.864.148-1.594.453-2.188.312-.594.738-1.035 1.28-1.328.54-.3 1.165-.453 1.876-.453.738 0 1.367.148 1.89.437.52.293.891.735 1.11 1.329l-1.11.671h-.14c-.156-.406-.383-.69-.672-.859-.281-.176-.64-.266-1.078-.266-.649 0-1.149.215-1.5.641-.356.418-.531 1.09-.531 2.016 0 .918.175 1.59.53 2.015.352.43.852.641 1.5.641 1 0 1.614-.488 1.845-1.469h.125l1.125.594c-.211.73-.57 1.277-1.078 1.64-.512.368-1.184.547-2.016.547Zm10.605-3.5v2.109h3.687v1.281h-5.219v-7.719h5.125v1.282h-3.594v1.796h3.14v1.25Zm16.507 3.39v-1.266h1.86v-4.796l-.11-.032a5.33 5.33 0 0 1-1.657.469v-1.297c.852-.187 1.547-.453 2.079-.797h1.203v6.453h1.656v1.266Zm13.231.11c-.719 0-1.293-.145-1.719-.438-.418-.29-.695-.703-.828-1.234l1.157-.516.125.016c.195.593.617.89 1.265.89.5 0 .879-.207 1.14-.625.259-.414.391-1.047.391-1.89l-.093-.032a1.94 1.94 0 0 1-.703.766c-.282.168-.649.25-1.094.25-.461 0-.867-.098-1.219-.297a2.172 2.172 0 0 1-.812-.875c-.2-.383-.297-.828-.297-1.328 0-.54.113-1.004.343-1.39.227-.395.547-.696.954-.907.414-.219.906-.328 1.468-.328.946 0 1.688.305 2.219.906.54.606.813 1.578.813 2.922 0 .918-.125 1.684-.375 2.297-.25.617-.606 1.074-1.063 1.375-.46.293-1.016.437-1.672.437Zm.11-4.063c.394 0 .707-.113.937-.344.227-.226.344-.539.344-.937 0-.395-.117-.707-.344-.938-.219-.238-.531-.36-.937-.36-.399 0-.704.118-.922.345-.22.218-.328.539-.328.953 0 .406.109.726.328.953.218.219.523.328.922.328Zm11.591 4.063c-.719 0-1.293-.145-1.719-.438-.418-.29-.695-.703-.828-1.234l1.156-.516.125.016c.196.593.618.89 1.266.89.5 0 .879-.207 1.14-.625.258-.414.391-1.047.391-1.89l-.093-.032a1.94 1.94 0 0 1-.704.766c-.28.168-.648.25-1.093.25-.461 0-.868-.098-1.22-.297a2.172 2.172 0 0 1-.812-.875c-.199-.383-.296-.828-.296-1.328 0-.54.113-1.004.343-1.39.227-.395.547-.696.953-.907.414-.219.907-.328 1.47-.328.944 0 1.687.305 2.218.906.539.606.812 1.578.812 2.922 0 .918-.125 1.684-.375 2.297-.25.617-.605 1.074-1.062 1.375-.461.293-1.016.437-1.672.437Zm.11-4.063c.394 0 .706-.113.937-.344.226-.226.344-.539.344-.937 0-.395-.118-.707-.344-.938-.219-.238-.531-.36-.938-.36-.398 0-.703.118-.921.345-.22.218-.329.539-.329.953 0 .406.11.726.329.953.218.219.523.328.921.328Zm12.138 4.063c-.625 0-1.172-.141-1.64-.422-.47-.282-.837-.711-1.095-1.297-.25-.594-.375-1.344-.375-2.25 0-.907.125-1.649.375-2.235.258-.593.625-1.03 1.094-1.312.469-.281 1.016-.422 1.64-.422.634 0 1.188.14 1.657.422.469.281.828.719 1.078 1.312.258.586.39 1.328.39 2.235 0 .906-.132 1.656-.39 2.25-.25.586-.61 1.015-1.078 1.297-.469.28-1.023.421-1.656.421Zm0-1.297c.344 0 .629-.082.86-.25.237-.164.421-.442.546-.829.125-.394.188-.925.188-1.593 0-.664-.063-1.192-.188-1.578-.125-.395-.309-.676-.547-.844-.23-.164-.515-.25-.86-.25-.343 0-.632.086-.859.25-.23.168-.406.45-.53.844-.126.386-.188.914-.188 1.578 0 .668.062 1.199.187 1.593.125.387.301.665.531.829.227.168.516.25.86.25Zm0 0" fill="#ffbd59"/></svg>